<?xml version="1.0" standalone="no"?><!DOCTYPE svg PUBLIC "-//W3C//DTD SVG 1.1//EN" "http://www.w3.org/Graphics/SVG/1.1/DTD/svg11.dtd"><svg t="1613134375012" class="icon" viewBox="0 0 1024 1024" version="1.1" xmlns="http://www.w3.org/2000/svg" p-id="1265" xmlns:xlink="http://www.w3.org/1999/xlink" width="200" height="200"><defs><style type="text/css"></style></defs><path d="M512 512m-448 0a448 448 0 1 0 896 0 448 448 0 1 0-896 0Z" fill="#B2E8FF" p-id="1266"></path><path d="M802.432 472.192c6.4 0 11.648-5.248 11.648-11.648v-32.128c0-6.4-5.248-11.648-11.648-11.648h-38.528v-44.8c0-47.36-38.528-86.016-86.016-86.016h-44.8v-38.528c0-6.4-5.248-11.648-11.648-11.648h-32.128c-6.4 0-11.648 5.248-11.648 11.648v38.528h-24.832v-38.528c0-6.4-5.248-11.648-11.648-11.648h-32.128c-6.4 0-11.648 5.248-11.648 11.648v38.528h-24.832v-38.528c0-6.4-5.248-11.648-11.648-11.648H428.8c-6.4 0-11.648 5.248-11.648 11.648v38.528h-44.8c-47.36 0-86.016 38.528-86.016 86.016v44.8h-38.528c-6.4 0-11.648 5.248-11.648 11.648v32.128c0 6.4 5.248 11.648 11.648 11.648h38.528v24.832h-38.528c-6.4 0-11.648 5.248-11.648 11.648v32.128c0 6.4 5.248 11.648 11.648 11.648h38.528V577.28h-38.528c-6.4 0-11.648 5.248-11.648 11.648v32.128c0 6.4 5.248 11.648 11.648 11.648h38.528v44.8c0 47.36 38.528 86.016 86.016 86.016h44.8v38.528c0 6.4 5.248 11.648 11.648 11.648h32.128c6.4 0 11.648-5.248 11.648-11.648v-38.528h24.832v38.528c0 6.4 5.248 11.648 11.648 11.648h32.128c6.4 0 11.648-5.248 11.648-11.648v-38.528h24.832v38.528c0 6.4 5.248 11.648 11.648 11.648h32.128c6.4 0 11.648-5.248 11.648-11.648v-38.528h44.8c47.36 0 86.016-38.528 86.016-86.016v-44.8h38.528c6.4 0 11.648-5.248 11.648-11.648v-32.128c0-6.4-5.248-11.648-11.648-11.648h-38.528v-24.832h38.528c6.4 0 11.648-5.248 11.648-11.648v-32.128c0-6.4-5.248-11.648-11.648-11.648h-38.528v-24.832h38.528z m-105.088-81.536v268.288c0 21.248-17.28 38.4-38.4 38.4H390.656c-21.248 0-38.4-17.28-38.4-38.4V390.656c0-21.248 17.28-38.4 38.4-38.4h268.288c21.12 0 38.4 17.28 38.4 38.4z" fill="#1A6C91" opacity=".5" p-id="1267"></path><path d="M631.68 373.504h-213.76c-24.448 0-44.416 19.968-44.416 44.416v213.76c0 24.448 19.968 44.416 44.416 44.416h213.76c24.448 0 44.416-19.968 44.416-44.416v-213.76c0-24.448-19.968-44.416-44.416-44.416z" fill="#1A6C91" opacity=".5" p-id="1268"></path><path d="M789.632 451.712c2.176 0 3.968-1.792 3.968-3.968v-32.128c0-2.176-1.792-3.968-3.968-3.968h-46.208v-52.48c0-43.264-35.072-78.336-78.336-78.336h-52.48v-46.208c0-2.176-1.792-3.968-3.968-3.968h-32.128c-2.176 0-3.968 1.792-3.968 3.968v46.208h-40.192v-46.208c0-2.176-1.792-3.968-3.968-3.968h-32.128c-2.176 0-3.968 1.792-3.968 3.968v46.208h-40.192v-46.208c0-2.176-1.792-3.968-3.968-3.968H416c-2.176 0-3.968 1.792-3.968 3.968v46.208h-52.48c-43.264 0-78.336 35.072-78.336 78.336v52.48h-46.208c-2.176 0-3.968 1.792-3.968 3.968v32.128c0 2.176 1.792 3.968 3.968 3.968h46.208v40.192h-46.208c-2.176 0-3.968 1.792-3.968 3.968v32.128c0 2.176 1.792 3.968 3.968 3.968h46.208V572.16h-46.208c-2.176 0-3.968 1.792-3.968 3.968v32.128c0 2.176 1.792 3.968 3.968 3.968h46.208v52.48c0 43.264 35.072 78.336 78.336 78.336h52.48v46.208c0 2.176 1.792 3.968 3.968 3.968h32.128c2.176 0 3.968-1.792 3.968-3.968v-46.208h40.192v46.208c0 2.176 1.792 3.968 3.968 3.968h32.128c2.176 0 3.968-1.792 3.968-3.968v-46.208h40.192v46.208c0 2.176 1.792 3.968 3.968 3.968h32.128c2.176 0 3.968-1.792 3.968-3.968v-46.208h52.48c43.264 0 78.336-35.072 78.336-78.336v-52.48h46.208c2.176 0 3.968-1.792 3.968-3.968v-32.128c0-2.176-1.792-3.968-3.968-3.968h-46.208v-40.192h46.208c2.176 0 3.968-1.792 3.968-3.968v-32.128c0-2.176-1.792-3.968-3.968-3.968h-46.208v-40.192h46.208z m-97.408 194.432c0 25.344-20.736 46.08-46.08 46.08H377.856c-25.344 0-46.08-20.736-46.08-46.08V377.856c0-25.344 20.736-46.08 46.08-46.08h268.288c25.344 0 46.08 20.736 46.08 46.08v268.288z" fill="#FFFFFF" p-id="1269"></path><path d="M608.512 801.28h-32.128c-6.4 0-11.648-5.248-11.648-11.648v-38.528h-24.832v38.528c0 6.4-5.248 11.648-11.648 11.648h-32.128c-6.4 0-11.648-5.248-11.648-11.648v-38.528h-24.832v38.528c0 6.4-5.248 11.648-11.648 11.648h-32.128c-6.4 0-11.648-5.248-11.648-11.648v-38.528h-44.8c-47.36 0-86.016-38.528-86.016-86.016v-44.8h-38.528c-6.4 0-11.648-5.248-11.648-11.648v-32.128c0-6.4 5.248-11.648 11.648-11.648h38.528v-24.832h-38.528c-6.4 0-11.648-5.248-11.648-11.648v-32.128c0-6.4 5.248-11.648 11.648-11.648h38.528v-24.832h-38.528c-6.4 0-11.648-5.248-11.648-11.648V416c0-6.4 5.248-11.648 11.648-11.648h38.528v-44.8c0-47.36 38.528-86.016 86.016-86.016h44.8v-38.528c0-6.4 5.248-11.648 11.648-11.648H448c6.4 0 11.648 5.248 11.648 11.648v38.528h24.832v-38.528c0-6.4 5.248-11.648 11.648-11.648h32.128c6.4 0 11.648 5.248 11.648 11.648v38.528h24.832v-38.528c0-6.4 5.248-11.648 11.648-11.648h32.128c6.4 0 11.648 5.248 11.648 11.648v38.528h44.8c47.36 0 86.016 38.528 86.016 86.016v44.8h38.528c6.4 0 11.648 5.248 11.648 11.648v32.128c0 6.4-5.248 11.648-11.648 11.648h-38.528v24.832h38.528c6.4 0 11.648 5.248 11.648 11.648v32.128c0 6.4-5.248 11.648-11.648 11.648h-38.528v24.832h38.528c6.4 0 11.648 5.248 11.648 11.648v32.128c0 6.4-5.248 11.648-11.648 11.648h-38.528v44.8c0 47.36-38.528 86.016-86.016 86.016h-44.8v38.528c0.128 6.4-5.12 11.648-11.648 11.648z m-28.544-15.36h24.832v-42.624c0-4.224 3.456-7.68 7.68-7.68h52.48c38.912 0 70.656-31.744 70.656-70.656v-52.48c0-4.224 3.456-7.68 7.68-7.68H785.92v-24.832h-42.624c-4.224 0-7.68-3.456-7.68-7.68v-40.192c0-4.224 3.456-7.68 7.68-7.68H785.92v-24.832h-42.624c-4.224 0-7.68-3.456-7.68-7.68v-40.192c0-4.224 3.456-7.68 7.68-7.68H785.92v-24.832h-42.624c-4.224 0-7.68-3.456-7.68-7.68v-52.48c0-38.912-31.744-70.656-70.656-70.656h-52.48c-4.224 0-7.68-3.456-7.68-7.68V238.08h-24.832v42.624c0 4.224-3.456 7.68-7.68 7.68h-40.192c-4.224 0-7.68-3.456-7.68-7.68V238.08h-24.832v42.624c0 4.224-3.456 7.68-7.68 7.68h-40.192c-4.224 0-7.68-3.456-7.68-7.68V238.08h-24.832v42.624c0 4.224-3.456 7.68-7.68 7.68h-52.48c-38.912 0-70.656 31.744-70.656 70.656v52.48c0 4.224-3.456 7.68-7.68 7.68H238.08v24.832h42.624c4.224 0 7.68 3.456 7.68 7.68v40.192c0 4.224-3.456 7.68-7.68 7.68H238.08v24.832h42.624c4.224 0 7.68 3.456 7.68 7.68v40.192c0 4.224-3.456 7.68-7.68 7.68H238.08v24.832h42.624c4.224 0 7.68 3.456 7.68 7.68v52.48c0 38.912 31.744 70.656 70.656 70.656h52.48c4.224 0 7.68 3.456 7.68 7.68V785.92h24.832v-42.624c0-4.224 3.456-7.68 7.68-7.68h40.192c4.224 0 7.68 3.456 7.68 7.68V785.92h24.832v-42.624c0-4.224 3.456-7.68 7.68-7.68h40.192c4.224 0 7.68 3.456 7.68 7.68V785.92z m66.176-86.016H377.856c-29.696 0-53.76-24.192-53.76-53.76V377.856c0-29.696 24.192-53.76 53.76-53.76h268.288c29.696 0 53.76 24.192 53.76 53.76v268.288c0 29.696-24.064 53.76-53.76 53.76zM377.856 339.456c-21.248 0-38.4 17.28-38.4 38.4v268.288c0 21.248 17.28 38.4 38.4 38.4h268.288c21.248 0 38.4-17.28 38.4-38.4V377.856c0-21.248-17.28-38.4-38.4-38.4H377.856z" fill="#1A6C91" p-id="1270"></path><path d="M618.88 655.616h-213.76c-20.224 0-36.736-16.512-36.736-36.736v-213.76c0-20.224 16.512-36.736 36.736-36.736h213.76c20.224 0 36.736 16.512 36.736 36.736v213.76c0 20.224-16.512 36.736-36.736 36.736z" fill="#FFFFFF" p-id="1271"></path><path d="M618.88 663.296h-213.76c-24.448 0-44.416-19.968-44.416-44.416v-213.76c0-24.448 19.968-44.416 44.416-44.416h213.76c24.448 0 44.416 19.968 44.416 44.416v213.76c0 24.448-19.968 44.416-44.416 44.416z m-213.76-287.232c-16 0-29.056 13.056-29.056 29.056v213.76c0 16 13.056 29.056 29.056 29.056h213.76c16 0 29.056-13.056 29.056-29.056v-213.76c0-16-13.056-29.056-29.056-29.056h-213.76z" fill="#1A6C91" p-id="1272"></path></svg>